<svg width="36" height="36" viewBox="0 0 36 36" fill="none" xmlns="http://www.w3.org/2000/svg">
<path d="M13.5 9.75C13.5 8.95435 13.1839 8.19129 12.6213 7.62868C12.0587 7.06607 11.2956 6.75 10.5 6.75C9.70435 6.75 8.94129 7.06607 8.37868 7.62868C7.81607 8.19129 7.5 8.95435 7.5 9.75C7.5 10.5456 7.81607 11.3087 8.37868 11.8713C8.94129 12.4339 9.70435 12.75 10.5 12.75C11.2956 12.75 12.0587 12.4339 12.6213 11.8713C13.1839 11.3087 13.5 10.5456 13.5 9.75Z" stroke="white" stroke-width="3" stroke-linejoin="round"/>
<path d="M27.75 9.75C27.75 8.95435 27.4339 8.19129 26.8713 7.62868C26.3087 7.06607 25.5456 6.75 24.75 6.75C23.9544 6.75 23.1913 7.06607 22.6287 7.62868C22.0661 8.19129 21.75 8.95435 21.75 9.75C21.75 10.5456 22.0661 11.3087 22.6287 11.8713C23.1913 12.4339 23.9544 12.75 24.75 12.75C25.5456 12.75 26.3087 12.4339 26.8713 11.8713C27.4339 11.3087 27.75 10.5456 27.75 9.75Z" stroke="white" stroke-width="3" stroke-linejoin="round"/>
<path d="M3 9.75H7.5" stroke="white" stroke-width="3" stroke-linecap="round"/>
<path d="M13.5 9.75H21.75" stroke="white" stroke-width="3" stroke-linecap="round"/>
<path d="M27.75 9.75H33" stroke="white" stroke-width="3" stroke-linecap="round"/>
<path d="M7.5 21.75L3 26.25L7.5 30.75" stroke="white" stroke-width="3" stroke-linecap="round" stroke-linejoin="round"/>
<path d="M3 26.25H33" stroke="white" stroke-width="3" stroke-linecap="round" stroke-linejoin="round"/>
</svg>
